<svg version="1.1" xmlns="http://www.w3.org/2000/svg" xmlns:xlink="http://www.w3.org/1999/xlink" width="16" height="16" viewBox="0,0,255.99593,255.99593"><g fill="#ffffff" fill-rule="nonzero" stroke="none" stroke-width="1" stroke-linecap="butt" stroke-linejoin="miter" stroke-miterlimit="10" stroke-dasharray="" stroke-dashoffset="0" font-family="none" font-weight="none" font-size="none" text-anchor="none" style="mix-blend-mode: normal"><g transform="translate(-0.00204,-0.00204) scale(16,16)"><path d="M10.478,1.647c0.08119,-0.26399 -0.06701,-0.54381 -0.331,-0.625c-0.26399,-0.08119 -0.54381,0.06701 -0.625,0.331l-4,13c-0.08119,0.26399 0.06701,0.54381 0.331,0.625c0.26399,0.08119 0.54381,-0.06701 0.625,-0.331zM4.854,4.146c0.09404,0.0938 0.14689,0.22117 0.14689,0.354c0,0.13283 -0.05285,0.2602 -0.14689,0.354l-3.147,3.146l3.147,3.146c0.19551,0.19551 0.19551,0.51249 0,0.708c-0.19551,0.19551 -0.51249,0.19551 -0.708,0l-3.5,-3.5c-0.09404,-0.0938 -0.14689,-0.22117 -0.14689,-0.354c0,-0.13283 0.05285,-0.2602 0.14689,-0.354l3.5,-3.5c0.0938,-0.09404 0.22117,-0.14689 0.354,-0.14689c0.13283,0 0.2602,0.05285 0.354,0.14689zM11.146,4.146c-0.09404,0.0938 -0.14689,0.22117 -0.14689,0.354c0,0.13283 0.05285,0.2602 0.14689,0.354l3.147,3.146l-3.147,3.146c-0.19551,0.19551 -0.19551,0.51249 0,0.708c0.19551,0.19551 0.51249,0.19551 0.708,0l3.5,-3.5c0.09404,-0.0938 0.14689,-0.22117 0.14689,-0.354c0,-0.13283 -0.05285,-0.2602 -0.14689,-0.354l-3.5,-3.5c-0.0938,-0.09404 -0.22117,-0.14689 -0.354,-0.14689c-0.13283,0 -0.2602,0.05285 -0.354,0.14689z"></path></g></g></svg>